<?xml version="1.0" encoding="UTF-8"?>
<svg width="145px" height="26px" viewBox="0 0 145 26" version="1.1" xmlns="http://www.w3.org/2000/svg" xmlns:xlink="http://www.w3.org/1999/xlink">
    <!-- Generator: Sketch 60.1 (88133) - https://sketch.com -->
    <title>Logo</title>
    <desc>Created with Sketch.</desc>
    <g id="Logo" stroke="none" stroke-width="1" fill="none" fill-rule="evenodd">
        <g id="GoLogo-01">
            <g id="Group" fill="#FFFFFF">
                <path d="M5.89,7.94 C5.75,7.94 5.72,7.87 5.79,7.77 L6.5,6.86 C6.57,6.76 6.74,6.69 6.87,6.69 L18.92,6.69 C19.06,6.69 19.09,6.79 19.02,6.89 L18.45,7.77 C18.38,7.87 18.21,7.97 18.11,7.97 L5.89,7.94 Z" id="Path"></path>
                <path d="M0.79,11.04 C0.65,11.04 0.62,10.97 0.69,10.87 L1.4,9.96 C1.47,9.86 1.64,9.79 1.77,9.79 L17.17,9.79 C17.31,9.79 17.37,9.89 17.34,9.99 L17.07,10.8 C17.04,10.94 16.9,11 16.77,11 L0.79,11.04 Z" id="Path"></path>
                <path d="M8.96,14.15 C8.82,14.15 8.79,14.05 8.86,13.95 L9.33,13.11 C9.4,13.01 9.53,12.91 9.67,12.91 L16.42,12.91 C16.56,12.91 16.62,13.01 16.62,13.15 L16.55,13.96 C16.55,14.1 16.41,14.2 16.31,14.2 L8.96,14.15 Z" id="Path"></path>
                <g transform="translate(19.000000, 0.000000)">
                    <path d="M25.01,7.33 C22.88,7.87 21.43,8.28 19.34,8.82 C18.83,8.96 18.8,8.99 18.36,8.48 C17.85,7.91 17.48,7.53 16.77,7.2 C14.64,6.15 12.58,6.46 10.66,7.71 C8.36,9.2 7.18,11.39 7.22,14.12 C7.25,16.82 9.11,19.05 11.78,19.42 C14.08,19.72 16,18.91 17.52,17.19 C17.82,16.82 18.09,16.41 18.43,15.94 C17.21,15.94 15.7,15.94 11.91,15.94 C11.2,15.94 11.03,15.5 11.27,14.93 C11.71,13.88 12.52,12.13 12.99,11.25 C13.09,11.05 13.33,10.71 13.83,10.71 L26.12,10.71 C26.05,11.62 26.05,12.53 25.92,13.44 C25.55,15.87 24.64,18.1 23.15,20.06 C20.72,23.27 17.55,25.26 13.53,25.8 C10.22,26.24 7.15,25.6 4.45,23.57 C1.95,21.68 0.53,19.18 0.16,16.08 C-0.28,12.4 0.8,9.09 3.03,6.19 C5.43,3.05 8.6,1.06 12.48,0.35 C15.65,-0.22 18.69,0.15 21.43,2 C23.22,3.18 24.5,4.8 25.35,6.76 C25.55,7.06 25.41,7.23 25.01,7.33 Z" id="Path"></path>
                    <path d="M36.18,26 C33.11,25.93 30.31,25.05 27.94,23.03 C25.95,21.31 24.7,19.11 24.29,16.51 C23.68,12.69 24.73,9.32 27.02,6.31 C29.48,3.07 32.46,1.38 36.47,0.67 C39.91,0.06 43.15,0.4 46.09,2.39 C48.76,4.21 50.41,6.68 50.85,9.92 C51.42,14.48 50.11,18.19 46.97,21.37 C44.74,23.63 42.01,25.05 38.87,25.69 C37.97,25.86 37.06,25.9 36.18,26 Z M44.22,12.36 C44.19,11.92 44.19,11.58 44.12,11.25 C43.51,7.9 40.44,6.01 37.23,6.76 C34.09,7.47 32.06,9.46 31.32,12.63 C30.71,15.26 32,17.93 34.43,19.01 C36.29,19.82 38.14,19.72 39.93,18.81 C42.6,17.42 44.05,15.26 44.22,12.36 L44.22,12.36 Z" id="Shape" fill-rule="nonzero"></path>
                </g>
            </g>
            <rect id="Rectangle" x="0" y="0" width="145" height="26"></rect>
        </g>
    </g>
</svg>