<svg width="24" height="16" viewBox="0 0 24 16" fill="none" xmlns="http://www.w3.org/2000/svg">
<g clip-path="url(#clip0)">
<path d="M8.20236 0C6.2547 8.07646e-05 4.37061 0.693191 2.88722 1.95531C1.40383 3.21743 0.417932 4.9662 0.105942 6.88872C-0.206049 8.81123 0.176223 10.782 1.18436 12.4485C2.19249 14.1149 3.7607 15.3683 5.60839 15.9843C6.0185 16.0561 6.1723 15.81 6.1723 15.5947C6.1723 15.3999 6.16204 14.7539 6.16204 14.067C4.10119 14.4464 3.56804 13.5646 3.40399 13.1033C3.22196 12.6545 2.9334 12.2569 2.56325 11.9447C2.27617 11.7909 1.86605 11.4115 2.55299 11.4013C2.81529 11.4297 3.06687 11.521 3.2864 11.6673C3.50593 11.8137 3.68694 12.0108 3.81411 12.242C3.92629 12.4435 4.07714 12.6209 4.25801 12.7641C4.43888 12.9072 4.64622 13.0132 4.86814 13.0761C5.09006 13.1389 5.3222 13.1574 5.55126 13.1304C5.78033 13.1034 6.00181 13.0314 6.20302 12.9187C6.23853 12.5017 6.42437 12.1118 6.72594 11.8216C4.90092 11.6166 2.99388 10.9091 2.99388 7.77174C2.98235 6.95655 3.28316 6.16784 3.83462 5.56736C3.58385 4.85886 3.6132 4.08133 3.91664 3.39374C3.91664 3.39374 4.60356 3.17842 6.17228 4.23448C7.51442 3.86535 8.93131 3.86535 10.2735 4.23448C11.8421 3.16818 12.5291 3.39374 12.5291 3.39374C12.8326 4.08132 12.8619 4.85887 12.6111 5.56736C13.1642 6.16681 13.4653 6.95621 13.4519 7.77174C13.4519 10.9194 11.5345 11.6166 9.70954 11.8216C9.90529 12.02 10.056 12.2582 10.1516 12.5201C10.2471 12.7819 10.2852 13.0612 10.2632 13.3391C10.2632 14.4362 10.2529 15.3179 10.2529 15.5947C10.2529 15.81 10.4067 16.0664 10.8168 15.9843C12.6613 15.3633 14.225 14.107 15.2288 12.4397C16.2327 10.7724 16.6113 8.80261 16.2971 6.88196C15.983 4.9613 14.9965 3.2148 13.5138 1.95422C12.031 0.693631 10.1485 0.00101291 8.20236 0V0Z" fill="white"/>
</g>
<defs>
<clipPath id="clip0">
<rect width="24" height="16" fill="white"/>
</clipPath>
</defs>
</svg>
