<svg width="24" height="16" viewBox="0 0 24 16" fill="none" xmlns="http://www.w3.org/2000/svg">
<g clip-path="url(#clip0)">
<path d="M8.00067 6.85533H15.5527C15.63 7.25533 15.6753 7.716 15.6773 8.18667V8.18867C15.678 8.23267 15.6787 8.28467 15.6787 8.33667C15.6787 9.75733 15.3273 11.096 14.7073 12.2707L14.7293 12.2247C14.102 13.3993 13.18 14.3447 12.06 14.9827L12.026 15.0007C10.9093 15.6307 9.57467 16.002 8.15333 16.002C8.09933 16.002 8.04533 16.0013 7.992 16.0007H8C7.99133 16.0007 7.98067 16.0007 7.97067 16.0007C6.856 16.0007 5.79533 15.7687 4.83467 15.3507L4.88533 15.3707C2.95067 14.558 1.44267 13.0493 0.649333 11.1667L0.63 11.1153C0.231333 10.196 0 9.12533 0 8.00067C0 6.876 0.232 5.80533 0.65 4.834L0.63 4.886C1.44267 2.95133 2.95133 1.44333 4.834 0.65L4.88533 0.630667C5.79467 0.232667 6.854 0.00133333 7.968 0.00133333H8.002H8C8.03933 0.000666667 8.086 0 8.13267 0C10.1627 0 12.0067 0.798 13.368 2.098L13.3653 2.09533L11.188 4.18933C10.396 3.42133 9.31467 2.94733 8.12267 2.94733C8.07933 2.94733 8.03667 2.948 7.99333 2.94933H7.99933C7.99 2.94933 7.97933 2.94933 7.968 2.94933C7.06267 2.94933 6.21533 3.20133 5.494 3.63867L5.51533 3.62667C4.018 4.532 3.032 6.152 3.032 8.00133C3.032 9.85067 4.018 11.4707 5.49267 12.3633L5.51533 12.376C6.216 12.8013 7.06267 13.0533 7.968 13.0533H8.00133H7.99933H8.05467C8.63067 13.0533 9.18467 12.962 9.704 12.792L9.66667 12.8027C10.144 12.6547 10.5593 12.4413 10.9287 12.1693L10.9173 12.1773C11.2413 11.9287 11.522 11.648 11.7627 11.3347L11.7707 11.324C11.9787 11.062 12.1587 10.7633 12.2973 10.4433L12.3073 10.4173C12.4067 10.184 12.488 9.91133 12.538 9.628L12.5413 9.60467H8.00067V6.85533Z" fill="white"/>
</g>
<defs>
<clipPath id="clip0">
<rect width="24" height="16" fill="white"/>
</clipPath>
</defs>
</svg>
